# xmcd
#
# Track frame offsets: 
#        150
#        18798
#        35465
#        56555
#        72048
#        87900
#        120599
#        131823
#        142290
#        163253
#        180176
#        199547
#
# Disc length: 2974 seconds
#
# Revision: 0
# Processed by: cddbd v1.5.1PL2 Copyright (c) Steve Scherf et al.
# Submitted via: ExactAudioCopy v0.95b2
#
DISCID=a10b9c0c
DTITLE=Great Plains Gypsies - One Dark Day 
DYEAR=1998
DGENRE=Rock
TTITLE0=Empty Plans
TTITLE1=The Legend Of Kye LaFoone 
TTITLE2=Beauty Of The Other Side
TTITLE3=Worth Your Time 
TTITLE4=Under Your Nose
TTITLE5=Only Illusion
TTITLE6=Kentucky Moonshiner
TTITLE7=Ruben's Train
TTITLE8=The Gorge
TTITLE9=One More Story Told
TTITLE10=Thinking Of You
TTITLE11=Hourglass
EXTD=
EXTT0=
EXTT1=
EXTT2=
EXTT3=
EXTT4=
EXTT5=
EXTT6=
EXTT7=
EXTT8=
EXTT9=
EXTT10=
EXTT11=
PLAYORDER=
